<?xml version="1.0" standalone="no"?>
<!DOCTYPE svg PUBLIC "-//W3C//DTD SVG 20010904//EN"
 "http://www.w3.org/TR/2001/REC-SVG-20010904/DTD/svg10.dtd">
<svg version="1.0" xmlns="http://www.w3.org/2000/svg"
 width="360.000000pt" height="360.000000pt" viewBox="0 0 360.000000 360.000000"
 preserveAspectRatio="xMidYMid meet">
<metadata>
Created by potrace 1.11, written by Peter Selinger 2001-2013
</metadata>
<g transform="translate(0.000000,360.000000) scale(0.100000,-0.100000)"
fill="#000000" stroke="none">
<path d="M1561 3383 c-680 -89 -1223 -610 -1347 -1293 -22 -118 -26 -352 -8
-475 51 -358 200 -659 450 -909 126 -126 254 -218 409 -295 212 -105 425 -159
655 -165 161 -5 275 7 428 45 685 169 1176 774 1197 1474 13 447 -155 867
-472 1178 -251 246 -495 368 -888 442 -66 13 -324 12 -424 -2z m445 -163 c312
-55 566 -189 783 -413 183 -188 300 -406 366 -677 2 -7 14 -68 20 -105 3 -16
9 -93 12 -170 9 -232 -37 -445 -143 -660 -208 -423 -596 -706 -1071 -781 -132
-20 -338 -14 -483 15 -543 109 -976 524 -1100 1056 -31 129 -31 133 -37 285
-9 253 35 457 148 685 213 429 613 711 1104 779 75 10 309 2 401 -14z"/>
<path d="M1600 2562 l-155 -87 -2 -60 c-1 -33 -2 -65 -2 -72 -1 -7 -47 -38
-103 -69 -124 -69 -157 -88 -205 -115 -21 -12 -41 -26 -45 -32 -4 -6 -7 -81
-6 -166 0 -175 6 -161 -91 -213 l-51 -28 0 -177 c0 -98 4 -183 8 -189 4 -6 74
-48 155 -93 153 -85 158 -87 223 -60 29 11 36 9 130 -43 54 -31 131 -73 169
-94 39 -20 84 -46 100 -56 17 -10 36 -18 43 -18 7 0 104 50 215 111 193 107
202 111 232 99 63 -26 71 -24 177 36 57 33 125 70 151 84 26 14 49 32 52 40 2
8 5 93 7 188 l2 174 -72 36 -72 36 0 161 c0 88 -4 165 -8 172 -4 6 -84 54
-177 106 l-170 95 -2 63 c-1 35 -2 70 -2 76 -1 7 -22 23 -48 36 -27 13 -98 51
-160 85 -61 34 -118 62 -125 62 -7 -1 -83 -40 -168 -88z m356 -97 c21 -10 19
-13 -30 -39 -28 -16 -74 -41 -102 -57 l-51 -28 -59 30 c-32 17 -80 43 -105 57
l-47 26 55 29 c30 15 75 41 101 57 l47 28 85 -46 c47 -25 95 -51 106 -57z m64
-192 l0 -118 -28 -16 c-15 -8 -62 -34 -104 -58 l-78 -42 0 118 0 118 103 56
c56 31 103 57 105 58 1 0 2 -52 2 -116z m-389 55 l99 -53 0 -118 0 -118 -77
42 c-151 83 -133 58 -133 187 0 61 3 112 6 112 4 0 51 -24 105 -52z m-188
-157 c3 -50 7 -66 23 -75 10 -6 53 -30 94 -52 41 -23 91 -51 110 -62 19 -12
51 -29 70 -37 39 -18 22 -23 160 53 94 52 185 104 190 109 3 2 7 33 10 68 l5
63 137 -76 138 -77 0 -122 0 -121 -53 29 -53 28 -55 -28 c-29 -16 -101 -56
-159 -88 l-105 -59 -3 -186 -2 -187 81 -44 81 -45 -28 -15 c-16 -8 -94 -50
-173 -94 l-143 -80 -82 47 c-44 25 -117 66 -161 89 -44 24 -84 46 -88 48 -5 3
2 11 15 17 13 7 49 27 81 45 l57 33 2 164 c1 90 2 174 2 186 1 17 -14 29 -69
57 -38 20 -113 60 -165 88 l-95 52 -44 -24 c-24 -14 -47 -25 -52 -25 -5 0 -9
53 -9 118 l0 117 138 77 c75 42 138 75 140 74 1 -2 3 -31 5 -65z m-74 -417
c116 -65 118 -54 -19 -126 l-86 -44 -84 46 c-47 25 -93 51 -103 56 -17 10 -16
12 15 28 18 9 62 34 98 55 36 22 68 40 71 40 3 1 52 -24 108 -55z m1014 -3
l97 -55 -45 -26 c-25 -15 -72 -39 -105 -55 l-60 -29 -83 44 c-133 70 -129 61
-40 111 114 63 127 69 133 66 3 -1 49 -26 103 -56z m-1176 -227 c23 -18 24
-22 21 -130 l-3 -111 -102 56 -102 56 -1 117 0 117 81 -43 c45 -24 92 -52 106
-62z m307 -9 c0 -63 -2 -116 -5 -118 -13 -11 -190 -107 -197 -107 -11 0 -8
218 4 229 5 5 52 32 104 60 52 28 95 51 95 51 0 0 0 -52 -1 -115z m710 4 c11
-10 14 -229 3 -229 -6 0 -184 96 -196 107 -3 2 -5 55 -6 118 l-1 114 96 -51
c52 -28 99 -54 104 -59z m298 -2 c0 -58 -3 -110 -6 -115 -3 -6 -51 -35 -106
-65 l-100 -55 0 114 0 115 37 22 c55 33 168 93 171 91 1 -1 3 -49 4 -107z"/>
</g>
</svg>
