<?xml version="1.0" standalone="no"?>
<!DOCTYPE svg PUBLIC "-//W3C//DTD SVG 20010904//EN"
 "http://www.w3.org/TR/2001/REC-SVG-20010904/DTD/svg10.dtd">
<svg version="1.0" xmlns="http://www.w3.org/2000/svg"
 width="360.000000pt" height="360.000000pt" viewBox="0 0 360.000000 360.000000"
 preserveAspectRatio="xMidYMid meet">
<metadata>
Created by potrace 1.11, written by Peter Selinger 2001-2013
</metadata>
<g transform="translate(0.000000,360.000000) scale(0.100000,-0.100000)"
fill="#000000" stroke="none">
<path d="M0 1800 l0 -1800 1800 0 1800 0 0 1800 0 1800 -1800 0 -1800 0 0
-1800z m2071 1560 c343 -69 602 -211 844 -461 439 -454 562 -1119 316 -1708
-48 -114 -151 -285 -223 -371 -121 -143 -294 -290 -443 -378 -240 -141 -594
-226 -864 -208 -439 30 -826 217 -1104 533 -546 622 -522 1558 54 2142 270
273 584 427 959 470 121 14 343 5 461 -19z"/>
<path d="M1615 3223 c-486 -62 -891 -350 -1115 -793 -49 -96 -106 -281 -125
-405 -35 -223 -7 -493 74 -713 154 -421 523 -757 958 -872 607 -161 1232 82
1572 609 194 302 264 680 192 1041 -134 669 -724 1147 -1406 1138 -66 0 -133
-3 -150 -5z m334 -669 c89 -48 161 -92 162 -98 0 -6 1 -40 2 -75 l2 -63 158
-88 c86 -48 166 -95 177 -105 18 -17 20 -31 20 -179 l0 -161 58 -28 c31 -16
64 -32 72 -36 12 -6 14 -37 12 -182 -2 -96 -5 -181 -8 -189 -2 -8 -72 -53
-155 -98 -155 -86 -160 -88 -224 -62 -30 12 -39 8 -232 -99 -111 -61 -207
-111 -213 -111 -6 0 -102 50 -213 111 -193 107 -202 111 -232 99 -64 -26 -69
-24 -229 65 l-156 87 2 185 3 186 65 36 65 37 5 166 c3 92 7 169 10 172 3 3
82 48 175 100 l170 94 5 73 5 74 155 87 c85 48 160 87 167 88 7 0 84 -39 172
-86z"/>
<path d="M1672 2498 c-51 -29 -89 -55 -85 -59 5 -5 50 -31 101 -58 l92 -50 93
50 c50 27 95 53 100 58 8 8 -172 111 -194 111 -8 0 -56 -24 -107 -52z"/>
<path d="M1923 2321 l-103 -56 0 -118 0 -118 78 42 c42 24 89 50 104 58 l28
16 0 118 c0 64 -1 117 -2 116 -2 -1 -49 -27 -105 -58z"/>
<path d="M1530 2258 c0 -129 -18 -104 133 -187 l77 -42 0 118 0 118 -99 53
c-54 28 -101 52 -105 52 -3 0 -6 -51 -6 -112z"/>
<path d="M1308 2152 l-138 -77 0 -117 c0 -65 2 -118 5 -118 3 0 27 11 54 24
l48 25 124 -68 c68 -38 142 -77 164 -87 30 -14 40 -25 39 -42 0 -12 -1 -96 -2
-186 l-2 -165 -81 -44 -80 -44 165 -92 c91 -50 170 -91 176 -91 6 0 85 41 176
91 l165 92 -81 44 -80 44 2 187 3 186 105 59 c58 32 130 72 159 88 l55 28 53
-28 53 -29 0 121 0 122 -138 77 -137 76 -5 -63 c-3 -35 -7 -66 -10 -69 -9 -8
-312 -176 -319 -176 -7 0 -312 168 -321 176 -3 3 -7 34 -10 69 l-5 63 -137
-76z"/>
<path d="M1168 1742 l-97 -56 27 -16 c15 -9 61 -34 103 -57 l75 -40 99 54 c54
29 100 55 102 57 4 4 -195 116 -205 115 -4 -1 -51 -26 -104 -57z"/>
<path d="M2177 1743 c-54 -31 -96 -57 -94 -59 2 -2 48 -28 102 -57 l99 -54 75
40 c42 23 88 48 103 57 l28 17 -98 54 c-53 30 -101 55 -107 56 -5 1 -54 -23
-108 -54z"/>
<path d="M1030 1501 l0 -117 43 -21 c23 -12 70 -38 105 -57 l62 -36 0 118 0
117 -105 57 -105 56 0 -117z"/>
<path d="M2423 1560 l-103 -55 0 -117 0 -116 101 55 c55 31 103 61 105 68 3 6
3 58 2 116 l-3 104 -102 -55z"/>
<path d="M1413 1559 l-93 -50 -1 -62 c-1 -79 2 -161 6 -165 4 -4 188 99 195
109 3 4 4 47 3 96 -2 122 -2 123 -10 123 -5 0 -50 -23 -100 -51z"/>
<path d="M2038 1558 c-2 -29 -2 -80 0 -113 l4 -60 95 -53 c52 -29 97 -51 100
-49 4 4 7 150 4 204 -1 17 -22 33 -95 72 -51 28 -96 51 -99 51 -3 0 -7 -24 -9
-52z"/>
</g>
</svg>
